<?xml version="1.0" encoding="utf-8" standalone="yes"?>
<!DOCTYPE svg PUBLIC "-//W3C//DTD SVG 1.1//EN" "http://www.w3.org/Graphics/SVG/1.1/DTD/svg11.dtd">
<svg style="fill:none;stroke:none;fill-rule:evenodd;clip-rule:evenodd;stroke-linecap:round;stroke-linejoin:round;stroke-miterlimit:1.5;" version="1.1" xmlns="http://www.w3.org/2000/svg" xmlns:xlink="http://www.w3.org/1999/xlink" width="700" height="576" viewBox="0 0 700 576"><style class="text-font-style fontImports" data-font-family="Roboto">@import url(https://fonts.googleapis.com/css2?family=Roboto:wght@400;700&amp;amp;display=block);</style><g id="items" style="isolation: isolate"><g id="blend" style="mix-blend-mode: normal"><g id="g-root-sy_5_Vector_4njvfc1u41qfe-fill" data-item-order="999852806" transform="translate(204.53094482421875, 112.082763671875)"><g id="sy_5_Vector_4njvfc1u41qfe-fill-merged" stroke="none" fill="#95bdff" fill-opacity="1"><g><path d="M71.859 103.525L90.498 107.245L92.719 88.369L86.914 92.587L71.522 71.402C83.799 59.097 85.67 39.353 75.127 24.842C63.44 8.757 40.927 5.191 24.842 16.878C8.757 28.564 5.191 51.078 16.878 67.163C27.406 81.654 46.722 85.984 62.208 78.154L77.607 99.349L71.859 103.525"></path></g></g></g><g id="g-root-sy_5_Vector_4njvfc1u41qfe-stroke" data-item-order="999852806" transform="translate(204.53094482421875, 112.082763671875)"><g id="sy_5_Vector_4njvfc1u41qfe-stroke" fill="none" stroke-linecap="round" stroke-linejoin="round" stroke-miterlimit="4" stroke="#ffffff" stroke-width="1" stroke-opacity="1"><g><path d="M 71.859244 103.525236L 90.498244 107.245236L 92.719244 88.369236L 86.914244 92.587236L 71.522244 71.402236C 83.799244 59.097236 85.670244 39.353236 75.127244 24.842236C 63.440244 8.757236 40.927244 5.191236 24.842244 16.878236C 8.757244 28.564236 5.191244 51.078236 16.878244 67.163236C 27.406244 81.654236 46.722244 85.984236 62.208244 78.154236L 77.607244 99.349236L 71.859244 103.525236Z"></path></g></g></g><g id="g-root-sy_4_Vector_7qdaw1u41r7n-fill" data-item-order="999852810" transform="translate(143.49356079101562, 299.90521240234375)"><g id="sy_4_Vector_7qdaw1u41r7n-fill-merged" stroke="none" fill="#5d9bff" fill-opacity="1"><g><path d="M108.708 39.194L118.006 22.617L100.74 14.671L102.958 21.497L78.053 29.589C70.144 14.109 51.945 6.229 34.886 11.772C15.977 17.916 5.628 38.226 11.772 57.135C17.916 76.044 38.226 86.392 57.135 80.248C74.17 74.713 84.258 57.68 81.597 40.533L106.512 32.437L108.708 39.194"></path></g></g></g><g id="g-root-sy_4_Vector_7qdaw1u41r7n-stroke" data-item-order="999852810" transform="translate(143.49356079101562, 299.90521240234375)"><g id="sy_4_Vector_7qdaw1u41r7n-stroke" fill="none" stroke-linecap="round" stroke-linejoin="round" stroke-miterlimit="4" stroke="#ffffff" stroke-width="1" stroke-opacity="1"><g><path d="M 108.707628 39.193788L 118.005628 22.616788L 100.739628 14.670788L 102.957628 21.496788L 78.052628 29.588788C 70.143628 14.108788 51.944628 6.228788 34.885628 11.771788C 15.976628 17.915788 5.627628 38.225788 11.771628 57.134788C 17.915628 76.043788 38.225628 86.391788 57.134628 80.247788C 74.169628 74.712788 84.257628 57.679788 81.596628 40.532788L 106.511628 32.436788L 108.707628 39.193788Z"></path></g></g></g><g id="g-root-sy_3_Vector_1ly0dzs1u41pfo-fill" data-item-order="999852814" transform="translate(303.28118896484375, 376.300048828125)"><g id="sy_3_Vector_1ly0dzs1u41pfo-fill-merged" stroke="none" fill="#4e8cf1" fill-opacity="1"><g><path d="M58.893 23.965L46 10L33.107 23.965 H40.284 V50.151C23.118 52.89 10 67.763 10 85.7C10 105.582 26.118 121.7 46 121.7C65.882 121.7 82 105.582 82 85.7C82 67.788 68.918 52.931 51.787 50.163 V23.965 H58.893"></path></g></g></g><g id="g-root-sy_3_Vector_1ly0dzs1u41pfo-stroke" data-item-order="999852814" transform="translate(303.28118896484375, 376.300048828125)"><g id="sy_3_Vector_1ly0dzs1u41pfo-stroke" fill="none" stroke-linecap="round" stroke-linejoin="round" stroke-miterlimit="4" stroke="#ffffff" stroke-width="1" stroke-opacity="1"><g><path d="M 58.893 23.964951L 46 9.999951L 33.107 23.964951L 40.284 23.964951L 40.284 50.150951C 23.118 52.889951 10 67.762951 10 85.699951C 10 105.581951 26.118 121.699951 46 121.699951C 65.882 121.699951 82 105.581951 82 85.699951C 82 67.787951 68.918 52.930951 51.787 50.162951L 51.787 23.964951L 58.893 23.964951Z"></path></g></g></g><g id="g-root-sy_2_Vector_1d2ddqw1u41q8d-fill" data-item-order="999852818" transform="translate(427.06317138671875, 299.90533447265625)"><g id="sy_2_Vector_1d2ddqw1u41q8d-fill-merged" stroke="none" fill="#4f85dc" fill-opacity="1"><g><path d="M27.266 14.671L10 22.617L19.298 39.194L21.516 32.369L46.42 40.461C43.72 57.633 53.812 74.705 70.871 80.248C89.78 86.392 110.089 76.044 116.233 57.135C122.377 38.225 112.029 17.916 93.12 11.772C76.085 6.237 57.913 14.087 49.986 29.524L25.07 21.428L27.266 14.671"></path></g></g></g><g id="g-root-sy_2_Vector_1d2ddqw1u41q8d-stroke" data-item-order="999852818" transform="translate(427.06317138671875, 299.90533447265625)"><g id="sy_2_Vector_1d2ddqw1u41q8d-stroke" fill="none" stroke-linecap="round" stroke-linejoin="round" stroke-miterlimit="4" stroke="#ffffff" stroke-width="1" stroke-opacity="1"><g><path d="M 27.266018 14.670666L 10.000018 22.616666L 19.298018 39.193666L 21.516018 32.368666L 46.420018 40.460666C 43.720018 57.632666 53.812018 74.704666 70.871018 80.247666C 89.780018 86.391666 110.089018 76.043666 116.233018 57.134666C 122.377018 38.224666 112.029018 17.915666 93.120018 11.771666C 76.085018 6.236666 57.913018 14.086666 49.986018 29.523666L 25.070018 21.427666L 27.266018 14.670666Z"></path></g></g></g><g id="g-root-sy_1_Vector_18mjvmg1u41r0m-fill" data-item-order="999852822" transform="translate(391.31219482421875, 112.082763671875)"><g id="sy_1_Vector_18mjvmg1u41r0m-fill-merged" stroke="none" fill="#4877c3" fill-opacity="1"><g><path d="M10 88.369L12.221 107.245L30.86 103.525L25.054 99.307L40.446 78.122C55.943 85.996 75.298 81.674 85.842 67.163C97.528 51.077 93.962 28.564 77.877 16.878C61.792 5.191 39.279 8.757 27.592 24.842C17.064 39.333 18.915 59.042 31.146 71.351L15.748 92.545L10 88.369"></path></g></g></g><g id="g-root-sy_1_Vector_18mjvmg1u41r0m-stroke" data-item-order="999852822" transform="translate(391.31219482421875, 112.082763671875)"><g id="sy_1_Vector_18mjvmg1u41r0m-stroke" fill="none" stroke-linecap="round" stroke-linejoin="round" stroke-miterlimit="4" stroke="#ffffff" stroke-width="1" stroke-opacity="1"><g><path d="M 9.999994 88.369236L 12.220994 107.245236L 30.859994 103.525236L 25.053994 99.307236L 40.445994 78.122236C 55.942994 85.996236 75.297994 81.674236 85.841994 67.163236C 97.527994 51.077236 93.961994 28.564236 77.876994 16.878236C 61.791994 5.191236 39.278994 8.757236 27.591994 24.842236C 17.063994 39.333236 18.914994 59.042236 31.145994 71.351236L 15.747994 92.545236L 9.999994 88.369236Z"></path></g></g></g><g id="g-root-cr_0_cr-big_zqwvdk1u41rtb-fill" data-item-order="999852826" transform="translate(267.28118896484375, 211.9959716796875)"><g id="cr_0_cr-big_zqwvdk1u41rtb-fill-merged" stroke="none" fill="#484848" fill-opacity="1"><g><path d="M10 82C10 121.765 42.236 154 82 154C121.765 154 154 121.765 154 82C154 42.236 121.765 10 82 10C42.236 10 10 42.236 10 82"></path></g></g></g><g id="g-root-cr_0_cr-big_zqwvdk1u41rtb-stroke" data-item-order="999852826" transform="translate(267.28118896484375, 211.9959716796875)"><g id="cr_0_cr-big_zqwvdk1u41rtb-stroke" fill="none" stroke-linecap="round" stroke-linejoin="round" stroke-miterlimit="4" stroke="#ffffff" stroke-width="1" stroke-opacity="1"><g><path d="M 10 82C 10.000001 121.764503 42.235499 154.000001 82.000001 154.000001C 121.764503 154.000001 154.000001 121.764503 154.000001 82.000001C 154.000001 42.235499 121.764503 10.000001 82.000001 10.000001C 42.235499 10.000001 10.000001 42.235499 10.000001 82.000001Z"></path></g></g></g><g id="g-root-tx_projectg_18k2rpk1rmcff3-fill" data-item-order="1000000000" transform="translate(185.91400146484375, 38)"><g id="tx_projectg_18k2rpk1rmcff3-fill-merged" stroke="none" fill="#484848" fill-opacity="1"><g><text style="font: bold 25px Roboto, sans-serif; white-space: pre;" transform="translate(163.3671875, 25)" font-weight="bold" font-size="25px" font-family="Roboto, sans-serif"><tspan x="-151.37" y="14" dominant-baseline="ideographic">Project Goals and Features</tspan></text></g></g></g><g id="g-root-tx_projectg_18k2rpk1rmcff3-stroke" data-item-order="1000000000" transform="translate(185.91400146484375, 38)"></g><g id="g-root-ic_ques_dkgpfs1rlwz65-fill" data-item-order="1000000000" transform="translate(216.53323364257812, 124.08502197265625)"></g><g id="g-root-ic_ques_dkgpfs1rlwz65-stroke" data-item-order="1000000000" transform="translate(216.53323364257812, 124.08502197265625)"><g id="ic_ques_dkgpfs1rlwz65-stroke" fill="none" stroke-linecap="round" stroke-linejoin="round" stroke-miterlimit="4" stroke="#ffffff" stroke-width="1" stroke-opacity="1"><g><path d="M 19 27L 38 27M 19 33L 31 33M 19 21L 33 21M 19 39L 27 39M 19 45L 27 45M 31 57L 13 57C 11.895431 57 11 56.104568 11 55L 11 13C 11 11.895431 11.895431 11 13 11L 39.585999 11C 40.11639 11.000113 40.625015 11.210901 41 11.586L 48.414001 19C 48.789101 19.374985 48.999886 19.88361 49 20.414L 49 27M 33 45C 33 51.627419 38.372581 57 45 57C 51.627419 57 57 51.627419 57 45C 57 38.372581 51.627419 33 45 33C 38.372581 33 33 38.372581 33 45ZM 41.25 42.084C 41.25 40.012932 42.928932 38.334 45 38.334C 47.071068 38.334 48.75 40.012932 48.75 42.084003C 48.75 44.155071 47.071068 45.834003 45 45.834003L 45 47.834M 45 51.834C 45.276142 51.834 45.5 52.057858 45.5 52.334C 45.5 52.610142 45.276142 52.834 45 52.834C 44.723858 52.834 44.5 52.610142 44.5 52.334C 44.5 52.057858 44.723858 51.834 45 51.834"></path></g></g></g><g id="g-root-ic_1_1lynnig1rmcf0m-fill" data-item-order="1000000000" transform="translate(414.0291748046875, 124.08502197265625)"></g><g id="g-root-ic_1_1lynnig1rmcf0m-stroke" data-item-order="1000000000" transform="translate(414.0291748046875, 124.08502197265625)"><g id="ic_1_1lynnig1rmcf0m-stroke" fill="none" stroke-linecap="round" stroke-linejoin="round" stroke-miterlimit="4" stroke="#ffffff" stroke-width="1" stroke-opacity="1"><g><path d="M 16.348 45.931999L 12 57M 18 57L 19.785999 47M 51.652 45.931999L 56 57M 50 57L 48.214001 47M 38.664001 34.732002L 45.880001 40.503998M 22.119999 40.503998L 29.334 34.732002M 18.622 39.035999L 17.66 28.938M 30.195999 48.223999L 22.614 44.686001M 45.383999 44.688L 37.804001 48.223999M 50.334 29L 49.377998 39.026001M 37.697998 16.524L 47.414001 20.524M 20.584 20.524L 30.304001 16.521999M 15 43C 15 45.209141 16.790861 47 19 47C 21.209139 47 23 45.209141 23 43C 23 40.790863 21.209139 39 19 39C 16.790861 39 15 40.790863 15 43ZM 30 15C 30 17.209139 31.790861 19 34 19C 36.209137 19 38 17.209139 38 15C 38 12.790861 36.209137 11 34 11C 31.790861 11 30 12.790861 30 15ZM 12 24C 12 26.761423 14.238577 29 17 29C 19.761425 29 22 26.761423 22 24C 22 21.238577 19.761425 19 17 19C 14.238577 19 12 21.238577 12 24ZM 45 43C 45 45.209141 46.790859 47 49 47C 51.209141 47 53 45.209141 53 43C 53 40.790863 51.209141 39 49 39C 46.790859 39 45 40.790863 45 43ZM 46 24C 46 26.761423 48.238575 29 51 29C 53.761425 29 56 26.761423 56 24C 56 21.238577 53.761425 19 51 19C 48.238575 19 46 21.238577 46 24ZM 28.43 28.771999L 19 25M 49 25L 39.566002 28.774M 34 19L 34 25M 36.214001 36.576L 39 57M 29 57L 31.785999 36.576M 28 31C 28 34.313709 30.686293 37 34 37C 37.313709 37 40 34.313709 40 31C 40 27.686293 37.313709 25 34 25C 30.686293 25 28 27.686293 28 31Z"></path></g></g></g><g id="g-root-tx_document_hznnbc1rmcefg-fill" data-item-order="1000000000" transform="translate(89.29684448242188, 131)"><g id="tx_document_hznnbc1rmcefg-fill-merged" stroke="none" fill="#484848" fill-opacity="1"><g><text style="font: 15px Roboto, sans-serif; white-space: pre;" transform="translate(115.984375, 19)" font-size="15px" font-family="Roboto, sans-serif"><tspan x="-103.98" y="9" dominant-baseline="ideographic">Document Q&amp;A</tspan></text></g></g></g><g id="g-root-tx_document_hznnbc1rmcefg-stroke" data-item-order="1000000000" transform="translate(89.29684448242188, 131)"></g><g id="g-root-tx_vectorem_qtf8aw1rmcemg-fill" data-item-order="1000000000" transform="translate(483.28118896484375, 131)"><g id="tx_vectorem_qtf8aw1rmcemg-fill-merged" stroke="none" fill="#484848" fill-opacity="1"><g><text style="font: 15px Roboto, sans-serif; white-space: pre;" transform="translate(10, 19)" font-size="15px" font-family="Roboto, sans-serif"><tspan x="2" y="9" dominant-baseline="ideographic">Vector Embeddings</tspan></text></g></g></g><g id="g-root-tx_vectorem_qtf8aw1rmcemg-stroke" data-item-order="1000000000" transform="translate(483.28118896484375, 131)"></g><g id="g-root-ic_3_mccv601rlyeiq-fill" data-item-order="1000000000" transform="translate(303.28118896484375, 247.9959716796875)"></g><g id="g-root-ic_3_mccv601rlyeiq-stroke" data-item-order="1000000000" transform="translate(303.28118896484375, 247.9959716796875)"><g id="ic_3_mccv601rlyeiq-stroke" fill="none" stroke-linecap="round" stroke-linejoin="round" stroke-miterlimit="4" stroke="#ffffff" stroke-width="1" stroke-opacity="1"><g><path d="M 39.153999 60.273998L 18.469 60.273998C 14.620128 60.273998 11.5 57.153873 11.5 53.305L 11.5 35.887001L 20.200001 35.887001C 20.200253 33.000938 22.539938 30.661457 25.425999 30.661457C 28.312061 30.661457 30.651749 33.000938 30.652 35.887001L 39.352001 35.887001L 39.352001 50.479M 11.5 35.887001L 11.5 18.469C 11.5 14.620128 14.620128 11.5 18.469 11.5L 39.369999 11.5L 39.369999 18.469C 41.26638 18.423553 43.038486 19.409279 44.000038 21.044437C 44.961594 22.679594 44.961594 24.707405 44.000038 26.342562C 43.038486 27.977722 41.26638 28.963448 39.369999 28.917999L 39.369999 35.887001M 57.321999 35.887001L 39.369999 35.887001M 39.369999 11.5L 58.530998 11.5C 62.379871 11.5 65.5 14.620128 65.5 18.469L 65.5 35.887001M 44.5 62.5C 44.500004 72.441132 52.558876 80.5 62.5 80.5C 72.441132 80.5 80.5 72.441132 80.5 62.5C 80.5 52.558876 72.441132 44.500004 62.5 44.500004C 52.558876 44.500004 44.500004 52.558876 44.500004 62.5M 67 70.300003C 64.215393 71.9077 60.784611 71.9077 58 70.300003M 62.5 44.5C 64.985283 44.5 67 46.514721 67 49C 67 51.485283 64.985283 53.5 62.5 53.5M 70.375 58C 70.996323 58 71.5 58.503685 71.5 59.125M 69.25 59.125C 69.25 58.503685 69.753685 58 70.375 58M 70.375 60.25C 69.753685 60.25 69.25 59.746323 69.25 59.125M 71.5 59.125C 71.5 59.746323 70.996323 60.25 70.375 60.25M 54.625 58C 55.246323 58 55.75 58.503685 55.75 59.125M 53.5 59.125C 53.5 58.503685 54.003681 58 54.625 58M 54.625 60.25C 54.003681 60.25 53.5 59.746323 53.5 59.125M 55.75 59.125C 55.75 59.746323 55.246323 60.25 54.625 60.25"></path></g></g></g><g id="g-root-ic_dock_v5hvwo1rmhzpg-fill" data-item-order="1000000000" transform="translate(155.50424194335938, 311.91497802734375)"></g><g id="g-root-ic_dock_v5hvwo1rmhzpg-stroke" data-item-order="1000000000" transform="translate(155.50424194335938, 311.91497802734375)"><g id="ic_dock_v5hvwo1rmhzpg-stroke" fill="none" stroke-linecap="round" stroke-linejoin="round" stroke-miterlimit="4" stroke="#ffffff" stroke-width="1" stroke-opacity="1"><g><path d="M 12 37C 11.727344 36.99976 11.466412 37.110863 11.277619 37.307583C 11.088828 37.504303 10.988548 37.769585 11 38.042C 11.43 47.987999 17.848 55 27.99 55C 38.482002 55 49.990002 46.493999 49.990002 36C 51.313225 36.562279 52.808643 36.559978 54.130127 35.993629C 55.451611 35.427277 56.484604 34.345978 56.990002 33C 56.484417 31.656559 55.453087 30.577232 54.134014 30.011106C 52.814938 29.444981 51.322098 29.440971 50.000004 30.000002C 51 25 45 23 45 23C 45 23 42 28 45 32C 45 32 46 37 42 37ZM 22.99 44C 22.99 44.552284 23.437716 45 23.99 45C 24.542286 45 24.99 44.552284 24.99 44C 24.99 43.447716 24.542286 43 23.99 43C 23.437716 43 22.99 43.447716 22.99 44M 14.99 29L 22.99 29L 22.99 37L 14.99 37ZM 22.99 29L 30.99 29L 30.99 37L 22.99 37ZM 30.99 29L 38.989998 29L 38.989998 37L 30.99 37ZM 22.99 21L 30.99 21L 30.99 29L 22.99 29ZM 22.99 13L 30.99 13L 30.99 21L 22.99 21ZM 30.99 21L 38.989998 21L 38.989998 29L 30.99 29Z"></path></g></g></g><g id="g-root-ic_sear_4o74y01rmdu6c-fill" data-item-order="1000000000" transform="translate(475.0592041015625, 311.91497802734375)"></g><g id="g-root-ic_sear_4o74y01rmdu6c-stroke" data-item-order="1000000000" transform="translate(475.0592041015625, 311.91497802734375)"><g id="ic_sear_4o74y01rmdu6c-stroke" fill="none" stroke-linecap="round" stroke-linejoin="round" stroke-miterlimit="4" stroke="#ffffff" stroke-width="1" stroke-opacity="1"><g><path d="M 35 44.057999C 35 49.060593 39.055405 53.115997 44.057999 53.115997C 49.060593 53.115997 53.115997 49.060593 53.115997 44.057999C 53.115997 39.055405 49.060593 35 44.057999 35C 39.055405 35 35 39.055405 35 44.057999ZM 57 57L 50.504002 50.504002M 19 27L 38 27M 19 33L 31 33M 19 21L 33 21M 19 39L 27 39M 19 45L 27 45M 35 57L 13 57C 11.895431 57 11 56.104568 11 55L 11 13C 11 11.895431 11.895431 11 13 11L 39.585999 11C 40.11639 11.000113 40.625015 11.210901 41 11.586L 48.414001 19C 48.789101 19.374985 48.999886 19.88361 49 20.414L 49 29"></path></g></g></g><g id="g-root-tx_containe_1hegwy01rlydqg-fill" data-item-order="1000000000" transform="translate(13.999969482421875, 335)"><g id="tx_containe_1hegwy01rlydqg-fill-merged" stroke="none" fill="#484848" fill-opacity="1"><g><text style="font: 15px Roboto, sans-serif; white-space: pre;" transform="translate(123.28125, 19)" font-size="15px" font-family="Roboto, sans-serif"><tspan x="-111.28" y="9" dominant-baseline="ideographic">Containerization</tspan></text></g></g></g><g id="g-root-tx_containe_1hegwy01rlydqg-stroke" data-item-order="1000000000" transform="translate(13.999969482421875, 335)"></g><g id="g-root-tx_semantic_1hhl77s1rmcdmq-fill" data-item-order="1000000000" transform="translate(549.2811889648438, 335)"><g id="tx_semantic_1hhl77s1rmcdmq-fill-merged" stroke="none" fill="#484848" fill-opacity="1"><g><text style="font: 15px Roboto, sans-serif; white-space: pre;" transform="translate(10, 19)" font-size="15px" font-family="Roboto, sans-serif"><tspan x="2" y="9" dominant-baseline="ideographic">Semantic Search</tspan></text></g></g></g><g id="g-root-tx_semantic_1hhl77s1rmcdmq-stroke" data-item-order="1000000000" transform="translate(549.2811889648438, 335)"></g><g id="g-root-ic_1_18k2rpk1rmf7r4-fill" data-item-order="1000000000" transform="translate(315.28118896484375, 428)"></g><g id="g-root-ic_1_18k2rpk1rmf7r4-stroke" data-item-order="1000000000" transform="translate(315.28118896484375, 428)"><g id="ic_1_18k2rpk1rmf7r4-stroke" fill="none" stroke-linecap="round" stroke-linejoin="round" stroke-miterlimit="4" stroke="#ffffff" stroke-width="1" stroke-opacity="1"><g><path d="M 21.9 50.722C 24.020437 50.369061 25.810703 48.951202 26.639999 46.967999M 14.842 27.091999C 18.933346 27.809448 22.448338 30.41087 24.33 34.113998M 21.566 30.458L 25.152 27.768M 30 11.346C 29.961555 13.350931 29.599562 15.336494 28.928001 17.226M 26 19C 26 20.104568 26.89543 21 28 21C 29.10457 21 30 20.104568 30 19C 30 17.895432 29.10457 17 28 17C 26.89543 17 26 17.895432 26 19ZM 38 23C 38 24.104568 38.895432 25 40 25C 41.104568 25 42 24.104568 42 23C 42 21.895432 41.104568 21 40 21C 38.895432 21 38 21.895432 38 23ZM 45 31C 45 32.104568 45.895432 33 47 33C 48.104568 33 49 32.104568 49 31C 49 29.89543 48.104568 29 47 29C 45.895432 29 45 29.89543 45 31ZM 38 38C 38 39.104568 38.895432 40 40 40C 41.104568 40 42 39.104568 42 38C 42 36.895432 41.104568 36 40 36C 38.895432 36 38 36.895432 38 38ZM 25 27C 25 28.10457 25.895432 29 27 29C 28.10457 29 29 28.10457 29 27C 29 25.895432 28.10457 25 27 25C 25.895432 25 25 25.895432 25 27ZM 23 36C 23 37.104568 23.895432 38 25 38C 26.10457 38 27 37.104568 27 36C 27 34.895432 26.10457 34 25 34C 23.895432 34 23 34.895432 23 36ZM 57 34C 57.008011 31.185829 55.553005 28.569696 53.158001 27.092001C 53.293533 26.501471 53.363956 25.897869 53.368 25.292C 53.408073 21.133251 50.242878 17.643175 46.099998 17.278C 46.141312 15.640398 45.524818 14.054508 44.388306 12.874773C 43.251789 11.695037 41.690002 11.019809 40.052002 11C 37.462227 11.148269 35.151451 12.67555 34 15C 32.848549 12.67555 30.537773 11.148269 27.948 11C 26.309998 11.019809 24.748211 11.695037 23.611694 12.874773C 22.47518 14.054508 21.858686 15.640398 21.9 17.278C 17.755573 17.643291 14.589825 21.135719 14.632 25.296C 14.632763 25.901501 14.699829 26.505098 14.832 27.095999C 12.44329 28.57963 10.990566 31.192043 10.990566 34.003998C 10.990566 36.815956 12.44329 39.428368 14.832 40.911999C 14.699829 41.502899 14.632763 42.106499 14.632 42.711998C 14.594027 46.869217 17.758669 50.356941 21.9 50.722C 21.858686 52.3596 22.47518 53.945492 23.611694 55.125225C 24.748211 56.304962 26.309998 56.98019 27.948 57C 30.33633 57.057899 32.59996 55.93581 34 53.999996C 35.40004 55.93581 37.663666 57.057899 40.051998 56.999996C 41.690002 56.98019 43.251789 56.304962 44.388306 55.125225C 45.524818 53.945492 46.141312 52.3596 46.099998 50.722C 50.244423 50.356709 53.410175 46.864277 53.368 42.703999C 53.363956 42.098129 53.293533 41.49453 53.157997 40.903999C 55.551788 39.427048 57.006618 36.812752 57 34ZM 34 15L 34 38M 34 45.916L 34 54M 52.346001 21.326L 46.799999 24.102001C 45.179813 24.913155 43.276203 24.932337 41.639999 24.153999M 40 36C 40.593044 33.525269 42.525269 31.593044 45.000004 31.000002M 46.099998 50.722C 45.548 48.799999 44.605999 47.321999 43 47M 25 45C 25 46.104568 25.895432 47 27 47C 28.10457 47 29 46.104568 29 45C 29 43.895432 28.10457 43 27 43C 25.895432 43 25 43.895432 25 45ZM 39 47C 39 48.104568 39.895432 49 41 49C 42.104568 49 43 48.104568 43 47C 43 45.895432 42.104568 45 41 45C 39.895432 45 39 45.895432 39 47Z"></path></g></g></g><g id="g-root-tx_rag_dfgwqw1rlyd5a-fill" data-item-order="1000000000" transform="translate(322.69525146484375, 500)"><g id="tx_rag_dfgwqw1rlyd5a-fill-merged" stroke="none" fill="#484848" fill-opacity="1"><g><text style="font: 15px Roboto, sans-serif; white-space: pre;" transform="translate(26.5859375, 19)" font-size="15px" font-family="Roboto, sans-serif"><tspan x="-14.59" y="9" dominant-baseline="ideographic">RAG</tspan></text></g></g></g><g id="g-root-tx_rag_dfgwqw1rlyd5a-stroke" data-item-order="1000000000" transform="translate(322.69525146484375, 500)"></g></g></g><path id="w1q5q2mw1ue43yd" d="M65.283 12.757a.35.35 0 0 0 .584.157l5.203-5.141-6.183 3.523.396 1.461zm-2.216-11.7a.35.35 0 0 0-.522.305v3.111l3.276-1.868-2.754-1.548zm3.728 2.105l-4.25 2.421v2.445l6.391-3.644-2.141-1.222zm4.708 3.303a.35.35 0 0 0 0-.609l-1.592-.9-7.365 4.199v1.782a.35.35 0 0 0 .523.305l8.435-4.777z M44.542 2.513c0-.433.355-.783.792-.783s.792.35.792.783-.355.783-.792.783-.792-.35-.792-.783zm59.171 0c0-.433.355-.783.792-.783s.792.35.792.783-.355.783-.792.783-.792-.35-.792-.783zm-85.951 7.636h-1.27v-.487c-.276.201-.864.609-1.881.609-1.202 0-2.274-.794-2.137-2.078.118-1.106 1.153-1.584 1.848-1.727l2.17-.345c0-.539-.29-.956-1.064-1.006s-1.21.305-1.571 1.017l-1.124-.605c1.218-2.631 5.029-1.764 5.029.414v4.207zm-1.27-2.86c.006.396-.062 1.112-.819 1.59-.587.37-1.841.299-1.903-.395-.049-.555.461-.791.906-.898l1.816-.297zm72.662 2.86h-1.27v-.487c-.276.201-.864.609-1.881.609-1.202 0-2.274-.794-2.137-2.078.118-1.106 1.153-1.584 1.848-1.727l2.17-.345c0-.539-.29-.956-1.064-1.006s-1.21.305-1.571 1.017l-1.124-.605c1.218-2.631 5.029-1.764 5.029.414v4.207zm-1.27-2.86c.006.396-.062 1.112-.82 1.59-.587.37-1.841.299-1.903-.395-.049-.555.461-.791.906-.898l1.816-.297zM99.096 10.149H97.85v-8.45h1.246v4.895l2.68-2.559h1.738l-2.633 2.535 2.715 3.578h-1.556l-2.077-2.707-.867.844v1.863zm6.053-6.114h-1.255v6.113h1.255V4.035zm-59.2 0h-1.255v6.113h1.255V4.035zm5.584 6.113V1.697h1.255v2.695c.361-.346 1-.485 1.47-.485 1.452 0 2.477 1.082 2.457 2.448v3.792h-1.27v-3.68c0-.408-.214-1.339-1.315-1.339-.968 0-1.342.756-1.342 1.339v3.681h-1.255zm-4.76-4.894V4.039h.621a.45.45 0 0 0 .45-.45v-.855h1.251v1.305h1.309v1.215h-1.309v3.109c0 .293.105.664.648.664.365 0 .531-.035.736-.07v1.137s-.361.113-.857.113c-1.398 0-1.777-1.051-1.777-1.788V5.254h-1.071zM36.528 4.039h-1.394l2.191 6.106h1.125l1.234-3.918 1.238 3.918h1.129l2.188-6.106h-1.383l-1.359 3.93-1.256-3.93h-1.124l-1.242 3.957-1.348-3.957zM26.212 7.141c-.02 1.566 1.187 3.129 3.223 3.129 1.566 0 2.383-.918 2.734-1.719L31.172 8c-.315.399-.801 1.094-1.738 1.094-1.145 0-1.825-.781-1.891-1.52h4.625c.074-.284.148-.995-.03-1.559-.336-1.064-1.221-2.102-2.839-2.102s-3.088 1.152-3.088 3.227zm1.363-.75h3.348c-.055-.43-.566-1.301-1.623-1.301a1.79 1.79 0 0 0-1.725 1.301zm-8.758.75c.038 1.758 1.277 3.133 3.145 3.133 1.074 0 1.723-.477 1.961-.672v.547h1.242V1.703h-1.258v2.888c-.414-.36-1.062-.68-1.93-.68-1.91 0-3.198 1.473-3.16 3.23zm1.309-.08c0 1.119.723 1.978 1.836 1.978a1.88 1.88 0 0 0 1.94-1.904c0-1.371-1.011-1.99-1.972-1.99s-1.805.798-1.805 1.916zm76.683-.028C96.771 5.275 95.532 3.9 93.664 3.9c-1.074 0-1.723.477-1.961.672v-.547h-1.242v8.22h1.258V9.583c.414.36 1.063.68 1.93.68 1.91 0 3.198-1.473 3.16-3.23zm-1.309.08c0-1.119-.723-1.978-1.836-1.978a1.88 1.88 0 0 0-1.94 1.904c0 1.371 1.011 1.99 1.972 1.99S95.5 8.231 95.5 7.113zM106.441 10.173V4.036h1.254v.382c.361-.346 1-.485 1.47-.485 1.452 0 2.477 1.082 2.457 2.448v3.792h-1.27V6.492c0-.408-.214-1.339-1.315-1.339-.969 0-1.342.756-1.342 1.339v3.681h-1.254zm-30.383-.021V1.824h1.084l4.215 5.777V1.824h1.32v8.328h-1.094l-4.207-5.796v5.796h-1.319zM5.24 10.149H4V2.377h1.014l2.664 3.597 2.654-3.592h1.03v7.766h-1.256V4.762L7.678 8.068 5.24 4.742v5.407z" transform="translate(563.953125, 542)" fill="#80808088" stroke="none"></path></svg>